<?xml version="1.0" encoding="utf-8"?>
<!-- Generator: Adobe Illustrator 22.0.1, SVG Export Plug-In . SVG Version: 6.00 Build 0)  -->
<!DOCTYPE svg PUBLIC "-//W3C//DTD SVG 1.1//EN" "http://www.w3.org/Graphics/SVG/1.1/DTD/svg11.dtd">
<svg version="1.1" id="圖層_1" xmlns="http://www.w3.org/2000/svg" xmlns:xlink="http://www.w3.org/1999/xlink" x="0px" y="0px"
	 viewBox="0 0 300 300" enable-background="new 0 0 300 300" xml:space="preserve">
<text transform="matrix(1 0 0 1 -358.7578 18.8281)" font-family="'AbadiMT-CondensedExtraBold'" font-size="211.5141px">2</text>
<g>
	<path fill="#FFFFFF" d="M113.4,79.5c12.6-5.2,24-7.8,34-7.8c13,0,23.5,3.5,31.4,10.5c7.9,7,11.9,16.2,11.9,27.4
		c0,8.8-2.2,16.4-6.6,22.7c-4.4,6.3-12.8,14.6-25.2,25c-8.9,7.4-14.4,12.8-16.7,16.2c-2.2,3.4-3.5,7.5-3.8,12.3h54.5v26h-86.1v-16.5
		c0-13.3,2.1-23.6,6.2-31c4.1-7.4,13.3-17.1,27.6-29.1c6.7-5.7,11.1-10,13.2-12.9c2-2.9,3-5.8,3-8.9c0-4.1-1.6-7.5-4.8-10.3
		c-3.2-2.8-7.4-4.2-12.5-4.2c-7.6,0-16.3,3.7-26.2,11V79.5z"/>
</g>
</svg>
